<svg width="28" height="28" viewBox="0 0 28 28" fill="none" xmlns="http://www.w3.org/2000/svg">
<path d="M13.3312 13.518H1.55566V3.39129C1.55565 2.94015 1.73379 2.50727 2.05132 2.18682C2.36886 1.86636 2.80011 1.68428 3.25122 1.68018H13.3312V13.518ZM3.01789 12.0557H11.869V3.11129H3.25122C3.18934 3.11129 3.12999 3.13587 3.08623 3.17963C3.04247 3.22339 3.01789 3.28274 3.01789 3.34462V12.0557Z" fill="#949494"/>
<path d="M26.4445 13.518H14.6689V1.68018H24.7489C25.2001 1.68428 25.6313 1.86636 25.9488 2.18682C26.2664 2.50727 26.4445 2.94015 26.4445 3.39129V13.518ZM16.1312 12.0557H24.9823V3.39129C24.9893 3.35699 24.9885 3.32156 24.9799 3.28762C24.9714 3.25367 24.9553 3.22209 24.9329 3.1952C24.9105 3.16831 24.8823 3.1468 24.8505 3.13228C24.8186 3.11775 24.7839 3.11058 24.7489 3.11129H16.1312V12.0557Z" fill="#949494"/>
<path d="M13.3312 26.5688H3.25122C2.80421 26.5688 2.37528 26.3923 2.05775 26.0777C1.74021 25.7631 1.55977 25.3358 1.55566 24.8888V14.7466H13.3312V26.5688ZM3.01789 16.2088V24.8888C3.01789 24.9507 3.04247 25.01 3.08623 25.0538C3.12999 25.0976 3.18934 25.1221 3.25122 25.1221H11.869V16.2088H3.01789Z" fill="#949494"/>
<path d="M24.7489 26.5688H14.6689V14.7466H26.4445V24.8888C26.4404 25.3358 26.26 25.7631 25.9424 26.0777C25.6249 26.3923 25.196 26.5688 24.7489 26.5688ZM16.1312 25.1066H24.7489C24.8108 25.1066 24.8702 25.082 24.9139 25.0382C24.9577 24.9945 24.9823 24.9351 24.9823 24.8732V16.2088H16.1312V25.1066Z" fill="#949494"/>
<path d="M22.8198 16.5198C22.797 15.5704 22.4396 14.6596 21.8106 13.948C21.1816 13.2365 20.3214 12.77 19.382 12.631C19.3333 11.3078 18.7659 10.057 17.8024 9.14884C16.8389 8.24068 15.5568 7.74812 14.2331 7.77762C13.1679 7.76624 12.1253 8.08451 11.2481 8.68881C10.3709 9.29311 9.702 10.1539 9.33309 11.1532C8.19986 11.309 7.15978 11.8651 6.40089 12.721C5.64199 13.5769 5.21436 14.6761 5.19531 15.8198C5.23999 17.0948 5.7865 18.3006 6.71586 19.1746C7.64522 20.0486 8.8822 20.5201 10.1575 20.4865H18.6664H18.8842C19.9233 20.4549 20.9107 20.0259 21.6429 19.2879C22.3751 18.5499 22.7963 17.5592 22.8198 16.5198Z" fill="url(#paint0_linear_80_34877)"/>
<defs>
<linearGradient id="paint0_linear_80_34877" x1="13.9998" y1="5.78651" x2="13.9998" y2="23.3643" gradientUnits="userSpaceOnUse">
<stop offset="0.18" stop-color="#5EA0EF"/>
<stop offset="1" stop-color="#0078D4"/>
</linearGradient>
</defs>
</svg>
